<svg width="84" height="92" viewBox="0 0 84 92" fill="none" xmlns="http://www.w3.org/2000/svg">
<path d="M81.9023 88.2248H79.3445V7.90877C79.3445 7.06097 78.6572 6.37411 77.8098 6.37411H49.162C48.3144 6.37411 47.6273 7.06097 47.6273 7.90877V14.5591H44.558V7.90877C44.558 7.06097 43.8708 6.37411 43.0234 6.37411H36.3729V1.76995C36.3729 0.922144 35.6856 0.235291 34.8382 0.235291C33.9907 0.235291 33.3035 0.922144 33.3035 1.76995V6.37411H26.6532C25.8056 6.37411 25.1186 7.06097 25.1186 7.90877V14.5591H20.5144C19.6668 14.5591 18.9797 15.2459 18.9797 16.0938V28.8829H6.19059C5.34296 28.8829 4.65593 29.5697 4.65593 30.4176V88.2246H2.09774C1.25011 88.2246 0.56308 88.9115 0.56308 89.7593C0.56308 90.6071 1.25029 91.2941 2.09774 91.2941H81.9023C82.7499 91.2941 83.437 90.6073 83.437 89.7595C83.437 88.9116 82.7497 88.2248 81.9023 88.2248ZM28.1877 9.44344H41.4883V14.5591H28.1877V9.44344ZM23.072 88.2248H22.0489V85.667C22.0489 84.8192 21.3617 84.1323 20.5142 84.1323C19.6668 84.1323 18.9796 84.8192 18.9796 85.667V88.2248H17.9564V83.1091H23.072V88.2248ZM33.3034 48.834V51.4742V88.2248H26.1414V81.5745C26.1414 80.7267 25.4542 80.0398 24.6067 80.0398H16.4217C15.5741 80.0398 14.8871 80.7267 14.8871 81.5745V88.2248H7.72507V31.9524H33.3034V48.834ZM34.838 28.8831H22.0489V17.6286H47.6272V47.2994H36.3729V42.1837H40.977C41.8247 42.1837 42.5117 41.4969 42.5117 40.649C42.5117 39.8012 41.8245 39.1144 40.977 39.1144H36.3729V33.9987H40.977C41.8247 33.9987 42.5117 33.3119 42.5117 32.4641C42.5117 31.6163 41.8245 30.9294 40.977 30.9294H36.3729V30.4179C36.3729 29.5699 35.6856 28.8831 34.838 28.8831ZM61.9511 88.2248H36.3729V51.4742V50.3689H61.9511V88.2248ZM76.275 88.2248H65.0205V48.834V46.7877C65.0205 45.9399 64.3333 45.253 63.4858 45.253C62.6384 45.253 61.9511 45.9399 61.9511 46.7877V47.2992H58.8818V46.7877C58.8818 45.9399 58.1946 45.253 57.3472 45.253C56.4997 45.253 55.8125 45.9399 55.8125 46.7877V47.2992H50.6968V16.0939V9.44344H76.2751V88.2248H76.275Z" fill="black"/>
</svg>
